<svg id="visual" viewBox="0 0 900 600" width="900" height="600" xmlns="http://www.w3.org/2000/svg" xmlns:xlink="http://www.w3.org/1999/xlink" version="1.1"><path d="M0 417L21.5 419.8C43 422.7 86 428.3 128.8 429.5C171.7 430.7 214.3 427.3 257.2 426.3C300 425.3 343 426.7 385.8 419.8C428.7 413 471.3 398 514.2 398.7C557 399.3 600 415.7 642.8 419.2C685.7 422.7 728.3 413.3 771.2 415C814 416.7 857 429.3 878.5 435.7L900 442L900 601L878.5 601C857 601 814 601 771.2 601C728.3 601 685.7 601 642.8 601C600 601 557 601 514.2 601C471.3 601 428.7 601 385.8 601C343 601 300 601 257.2 601C214.3 601 171.7 601 128.8 601C86 601 43 601 21.5 601L0 601Z" fill="#c0e3ee"></path><path d="M0 436L21.5 443.3C43 450.7 86 465.3 128.8 468.5C171.7 471.7 214.3 463.3 257.2 460.7C300 458 343 461 385.8 463.3C428.7 465.7 471.3 467.3 514.2 455.7C557 444 600 419 642.8 407.5C685.7 396 728.3 398 771.2 405.5C814 413 857 426 878.5 432.5L900 439L900 601L878.5 601C857 601 814 601 771.2 601C728.3 601 685.7 601 642.8 601C600 601 557 601 514.2 601C471.3 601 428.7 601 385.8 601C343 601 300 601 257.2 601C214.3 601 171.7 601 128.8 601C86 601 43 601 21.5 601L0 601Z" fill="#d0eaf2"></path><path d="M0 453L21.5 454.3C43 455.7 86 458.3 128.8 467.5C171.7 476.7 214.3 492.3 257.2 499.2C300 506 343 504 385.8 493.3C428.7 482.7 471.3 463.3 514.2 452.5C557 441.7 600 439.3 642.8 439.7C685.7 440 728.3 443 771.2 444.7C814 446.3 857 446.7 878.5 446.8L900 447L900 601L878.5 601C857 601 814 601 771.2 601C728.3 601 685.7 601 642.8 601C600 601 557 601 514.2 601C471.3 601 428.7 601 385.8 601C343 601 300 601 257.2 601C214.3 601 171.7 601 128.8 601C86 601 43 601 21.5 601L0 601Z" fill="#e0f1f6"></path><path d="M0 485L21.5 491.8C43 498.7 86 512.3 128.8 512C171.7 511.7 214.3 497.3 257.2 489.8C300 482.3 343 481.7 385.8 481.3C428.7 481 471.3 481 514.2 481.2C557 481.3 600 481.7 642.8 483C685.7 484.3 728.3 486.7 771.2 487.5C814 488.3 857 487.7 878.5 487.3L900 487L900 601L878.5 601C857 601 814 601 771.2 601C728.3 601 685.7 601 642.8 601C600 601 557 601 514.2 601C471.3 601 428.7 601 385.8 601C343 601 300 601 257.2 601C214.3 601 171.7 601 128.8 601C86 601 43 601 21.5 601L0 601Z" fill="#f0f8fa"></path><path d="M0 525L21.5 530.3C43 535.7 86 546.3 128.8 546.5C171.7 546.7 214.3 536.3 257.2 535.2C300 534 343 542 385.8 548.7C428.7 555.3 471.3 560.7 514.2 558.7C557 556.7 600 547.3 642.8 545C685.7 542.7 728.3 547.3 771.2 550C814 552.7 857 553.3 878.5 553.7L900 554L900 601L878.5 601C857 601 814 601 771.2 601C728.3 601 685.7 601 642.8 601C600 601 557 601 514.2 601C471.3 601 428.7 601 385.8 601C343 601 300 601 257.2 601C214.3 601 171.7 601 128.8 601C86 601 43 601 21.5 601L0 601Z" fill="#ffffff"></path></svg>